<?xml version="1.0" encoding="UTF-8"?>
<svg version="1.1" xmlns="http://www.w3.org/2000/svg" width="97" height="100">
<path d="M0 0 C-0.27714844 0.67804687 -0.55429687 1.35609375 -0.83984375 2.0546875 C-4.95822176 12.63642744 -6.39240643 21.22891511 -2 32 C2.01641463 39.64968444 8.89324648 44.29774883 17 47 C24.59409764 47.64970541 30.86395511 47.27732282 37.78125 43.97265625 C40.17397228 42.92373398 42.42994624 42.42985054 45 42 C46.28051365 44.95615722 45.97087222 46.08017545 44.84765625 49.171875 C38.72629338 61.44139007 32.16214756 68.89215764 18.97265625 73.74609375 C9.77656322 76.4729516 -0.18654353 75.60434708 -9 72 C-19.61203277 66.06523601 -26.77492784 57.73645203 -30.6171875 46.13671875 C-32.57481328 35.20997079 -31.26721281 24.00038962 -25.45703125 14.46875 C-19.72369012 6.59688574 -10.38550348 -2.56541398 0 0 Z " fill="#FFFFFF" transform="translate(44,12)"/>
</svg>
