<?xml version="1.0" encoding="UTF-8"?>
<svg version="1.1" xmlns="http://www.w3.org/2000/svg" width="97" height="100">
<path d="M0 0 C2.26171875 0.08984375 2.26171875 0.08984375 5 1 C6.5237568 3.21932083 7.66806518 5.16499747 8.8125 7.5625 C9.27946289 8.48579102 9.27946289 8.48579102 9.75585938 9.42773438 C10.51982248 10.94390731 11.26207487 12.47098511 12 14 C12.88042969 13.69964844 13.76085938 13.39929687 14.66796875 13.08984375 C15.82941406 12.70957031 16.99085937 12.32929688 18.1875 11.9375 C19.91033203 11.36322266 19.91033203 11.36322266 21.66796875 10.77734375 C24.97454508 10.00593849 26.79082314 10.03906004 30 11 C29.45018084 17.04801071 28.09570426 22.30601106 26 28 C26.99902344 28.53109375 27.99804688 29.0621875 29.02734375 29.609375 C30.33110788 30.32222445 31.63447282 31.03580435 32.9375 31.75 C33.59685547 32.09804688 34.25621094 32.44609375 34.93554688 32.8046875 C39.78929937 35.49291965 39.78929937 35.49291965 40.94140625 38.265625 C40.96074219 38.83796875 40.98007813 39.4103125 41 40 C38.87767021 41.17176518 36.75242209 42.33754785 34.625 43.5 C34.02171875 43.83386719 33.4184375 44.16773438 32.796875 44.51171875 C28.2265625 47 28.2265625 47 26 47 C26.28875 47.86882813 26.5775 48.73765625 26.875 49.6328125 C27.24625 50.78523438 27.6175 51.93765625 28 53.125 C28.37125 54.26195312 28.7425 55.39890625 29.125 56.5703125 C29.96911949 59.87895941 30.16509276 62.60528016 30 66 C23.31006781 65.46048934 17.36539272 64.11293829 11 62 C10.773125 62.804375 10.54625 63.60875 10.3125 64.4375 C8.66368412 68.91285739 6.39455588 72.88721318 4 77 C2.265625 76.94140625 2.265625 76.94140625 0 76 C-1.5899933 73.65272887 -2.93501737 71.42866153 -4.25 68.9375 C-4.61351563 68.27427734 -4.97703125 67.61105469 -5.3515625 66.92773438 C-6.24616748 65.29154895 -7.12466067 63.64657276 -8 62 C-8.80824219 62.28875 -9.61648437 62.5775 -10.44921875 62.875 C-11.51785156 63.24625 -12.58648437 63.6175 -13.6875 64 C-15.27111328 64.556875 -15.27111328 64.556875 -16.88671875 65.125 C-19.78362056 65.9391857 -22.01700623 66.17709796 -25 66 C-26.34799697 61.49819881 -25.52972156 58.58916468 -24.0625 54.1875 C-23.68222656 53.02605469 -23.30195313 51.86460938 -22.91015625 50.66796875 C-22.45962891 49.34732422 -22.45962891 49.34732422 -22 48 C-23.39025391 47.32904297 -23.39025391 47.32904297 -24.80859375 46.64453125 C-26.01870004 46.03478777 -27.22831014 45.42405885 -28.4375 44.8125 C-29.04916016 44.52052734 -29.66082031 44.22855469 -30.29101562 43.92773438 C-33.34531922 42.35839606 -34.80324571 41.59195175 -35.91015625 38.26171875 C-35.93980469 37.51535156 -35.96945313 36.76898438 -36 36 C-33.87767021 34.82823482 -31.75242209 33.66245215 -29.625 32.5 C-29.02171875 32.16613281 -28.4184375 31.83226563 -27.796875 31.48828125 C-23.2265625 29 -23.2265625 29 -21 29 C-21.37253906 28.04738281 -21.74507812 27.09476563 -22.12890625 26.11328125 C-22.60742925 24.84660271 -23.08525736 23.5796615 -23.5625 22.3125 C-23.80935547 21.68666016 -24.05621094 21.06082031 -24.31054688 20.41601562 C-25.74841632 16.5479443 -26.26575069 13.96399767 -25 10 C-18.58008874 10.57065878 -12.98410537 12.67344909 -7 15 C-6.773125 14.195625 -6.54625 13.39125 -6.3125 12.5625 C-4.66368412 8.08714261 -2.39455588 4.11278682 0 0 Z M-13.80078125 28.28125 C-17.00874595 32.87898442 -16.64301304 38.65130063 -16 44 C-13.82921327 49.65153096 -10.35019908 53.15414942 -5 56 C-0.8419367 57.60957289 3.81917014 57.72556127 8.0546875 56.31640625 C13.90028288 53.65831476 17.24933692 50.25123144 20.3125 44.5625 C21.98587674 38.32536851 21.02472796 33.63225206 18 28 C14.42348405 23.85877101 11.06375162 20.3425021 5.44921875 19.71484375 C-3.41083433 19.43909108 -8.14522448 21.51239465 -13.80078125 28.28125 Z " fill="#FFFFFF" transform="translate(46,12)"/>
<path d="M0 0 C4.34889664 3.84058405 6.74822023 7.38149039 7.3125 13.25 C6.93704397 17.75547234 5.90439372 20.54889687 3 24 C-0.34857322 26.81810618 -3.21951841 27.90415138 -7.5625 28.4375 C-12.99830526 27.74567024 -15.94688548 26.05311452 -19.8125 22.1875 C-22.18003432 18.73766427 -23 17.15779543 -23 13 C-22.09757304 8.46411713 -20.91192986 4.98792401 -17.75 1.5625 C-11.75252754 -1.84515481 -6.30468122 -3.16510312 0 0 Z " fill="#FFFFFF" transform="translate(56,37)"/>
</svg>
